<svg width="280" height="32" viewBox="0 0 280 32" fill="none" xmlns="http://www.w3.org/2000/svg">
<rect width="280" height="32" fill="#1E1E1E"/>
<g id="MacBook Air - 1">
<rect width="1280" height="832" transform="translate(-40 -231)" fill="black"/>
<g id="Input Devices">
<g id="Filter chip">
<rect width="280" height="32" rx="8" fill="#E8DEF8"/>
<g id="state-layer">
<g id="Selected icon">
<path id="icon" d="M15.1625 20.5L10.8875 16.225L11.9563 15.1562L15.1625 18.3625L22.0438 11.4812L23.1125 12.55L15.1625 20.5Z" fill="#4A4459"/>
</g>
<path id="label-text" d="M40.6846 11.0469H42.3936V17.6982C42.3936 18.4548 42.2295 19.0882 41.9014 19.5986C41.5732 20.109 41.1266 20.4941 40.5615 20.7539C40.001 21.0091 39.3743 21.1367 38.6816 21.1367C37.9661 21.1367 37.3281 21.0091 36.7676 20.7539C36.207 20.4941 35.765 20.109 35.4414 19.5986C35.1224 19.0882 34.9629 18.4548 34.9629 17.6982V11.0469H36.6719V17.6982C36.6719 18.1768 36.7539 18.571 36.918 18.8809C37.082 19.1862 37.3145 19.4118 37.6152 19.5576C37.916 19.7035 38.2715 19.7764 38.6816 19.7764C39.0918 19.7764 39.445 19.7035 39.7412 19.5576C40.042 19.4118 40.2744 19.1862 40.4385 18.8809C40.6025 18.571 40.6846 18.1768 40.6846 17.6982V11.0469ZM49.5961 18.4365C49.5961 18.2314 49.5642 18.0492 49.5004 17.8896C49.4411 17.7301 49.334 17.5843 49.1791 17.4521C49.0242 17.32 48.8054 17.1924 48.5229 17.0693C48.2449 16.9417 47.8894 16.8118 47.4564 16.6797C46.9825 16.5339 46.545 16.3721 46.1439 16.1943C45.7475 16.012 45.4011 15.8024 45.1049 15.5654C44.8087 15.3239 44.5785 15.0482 44.4145 14.7383C44.2504 14.4238 44.1684 14.0615 44.1684 13.6514C44.1684 13.2458 44.2527 12.8766 44.4213 12.5439C44.5945 12.2113 44.8383 11.9242 45.1527 11.6826C45.4717 11.4365 45.8477 11.2474 46.2807 11.1152C46.7136 10.9785 47.1921 10.9102 47.7162 10.9102C48.4545 10.9102 49.0902 11.0469 49.6234 11.3203C50.1612 11.5938 50.5736 11.9606 50.8607 12.4209C51.1524 12.8812 51.2982 13.3893 51.2982 13.9453H49.5961C49.5961 13.6172 49.5255 13.3278 49.3842 13.0771C49.2475 12.8219 49.0378 12.6214 48.7553 12.4756C48.4773 12.3298 48.1241 12.2568 47.6957 12.2568C47.2901 12.2568 46.9529 12.3184 46.684 12.4414C46.4151 12.5645 46.2146 12.7308 46.0824 12.9404C45.9503 13.1501 45.8842 13.387 45.8842 13.6514C45.8842 13.8382 45.9275 14.0091 46.0141 14.1641C46.1007 14.3145 46.2328 14.4557 46.4105 14.5879C46.5883 14.7155 46.8116 14.8363 47.0805 14.9502C47.3493 15.0641 47.6661 15.1735 48.0307 15.2783C48.5821 15.4424 49.0629 15.6247 49.473 15.8252C49.8832 16.0212 50.225 16.2445 50.4984 16.4951C50.7719 16.7458 50.977 17.0306 51.1137 17.3496C51.2504 17.6641 51.3188 18.0218 51.3188 18.4229C51.3188 18.8421 51.2344 19.2204 51.0658 19.5576C50.8972 19.8903 50.6557 20.1751 50.3412 20.4121C50.0313 20.6445 49.6576 20.8245 49.2201 20.9521C48.7872 21.0752 48.3041 21.1367 47.7709 21.1367C47.2924 21.1367 46.8207 21.0729 46.3559 20.9453C45.8956 20.8177 45.4763 20.624 45.098 20.3643C44.7198 20.0999 44.419 19.7718 44.1957 19.3799C43.9724 18.9834 43.8607 18.5208 43.8607 17.9922H45.5766C45.5766 18.3158 45.6313 18.5915 45.7406 18.8193C45.8546 19.0472 46.0118 19.234 46.2123 19.3799C46.4128 19.5212 46.6452 19.626 46.9096 19.6943C47.1785 19.7627 47.4656 19.7969 47.7709 19.7969C48.1719 19.7969 48.5069 19.7399 48.7758 19.626C49.0492 19.512 49.2543 19.3525 49.391 19.1475C49.5277 18.9424 49.5961 18.7054 49.5961 18.4365ZM56.6688 16.502H54.1326L54.1189 15.251H56.3338C56.7075 15.251 57.0242 15.1963 57.284 15.0869C57.5483 14.973 57.7488 14.8112 57.8855 14.6016C58.0223 14.3874 58.0906 14.1299 58.0906 13.8291C58.0906 13.4964 58.0268 13.2253 57.8992 13.0156C57.7716 12.806 57.5757 12.6533 57.3113 12.5576C57.0516 12.4619 56.7189 12.4141 56.3133 12.4141H54.6521V21H52.9363V11.0469H56.3133C56.8602 11.0469 57.3478 11.0993 57.7762 11.2041C58.2091 11.3089 58.576 11.473 58.8768 11.6963C59.1821 11.915 59.4122 12.193 59.5672 12.5303C59.7267 12.8675 59.8064 13.2686 59.8064 13.7334C59.8064 14.1436 59.7085 14.5195 59.5125 14.8613C59.3165 15.1986 59.0271 15.4743 58.6443 15.6885C58.2615 15.9027 57.7853 16.0303 57.2156 16.0713L56.6688 16.502ZM56.5936 21H53.5926L54.365 19.6396H56.5936C56.9809 19.6396 57.3045 19.5758 57.5643 19.4482C57.824 19.3161 58.0177 19.1361 58.1453 18.9082C58.2775 18.6758 58.3436 18.4046 58.3436 18.0947C58.3436 17.7712 58.2866 17.4909 58.1727 17.2539C58.0587 17.0124 57.8787 16.8278 57.6326 16.7002C57.3865 16.568 57.0652 16.502 56.6688 16.502H54.741L54.7547 15.251H57.2635L57.6531 15.7227C58.2 15.7409 58.6489 15.8617 58.9998 16.085C59.3553 16.3083 59.6196 16.5977 59.7928 16.9531C59.966 17.3086 60.0525 17.6914 60.0525 18.1016C60.0525 18.735 59.9135 19.266 59.6355 19.6943C59.3621 20.1227 58.9679 20.4486 58.4529 20.6719C57.938 20.8906 57.3182 21 56.5936 21ZM71.7027 19.6396V21H66.7057V19.6396H71.7027ZM67.1842 11.0469V21H65.4684V11.0469H67.1842ZM74.7285 13.6035V21H73.0742V13.6035H74.7285ZM72.9648 11.6621C72.9648 11.4115 73.0469 11.2041 73.2109 11.04C73.3796 10.8714 73.612 10.7871 73.9082 10.7871C74.1999 10.7871 74.43 10.8714 74.5986 11.04C74.7673 11.2041 74.8516 11.4115 74.8516 11.6621C74.8516 11.9082 74.7673 12.1133 74.5986 12.2773C74.43 12.4414 74.1999 12.5234 73.9082 12.5234C73.612 12.5234 73.3796 12.4414 73.2109 12.2773C73.0469 12.1133 72.9648 11.9082 72.9648 11.6621ZM79.0395 19.6943L80.851 13.6035H82.56L79.9896 21H78.9232L79.0395 19.6943ZM77.6518 13.6035L79.4975 19.7217L79.5863 21H78.5199L75.9359 13.6035H77.6518ZM86.8572 21.1367C86.3104 21.1367 85.8159 21.0479 85.3738 20.8701C84.9363 20.6878 84.5626 20.4349 84.2527 20.1113C83.9474 19.7878 83.7127 19.4072 83.5486 18.9697C83.3846 18.5322 83.3025 18.0605 83.3025 17.5547V17.2812C83.3025 16.7025 83.3868 16.1784 83.5555 15.709C83.7241 15.2396 83.9588 14.8385 84.2596 14.5059C84.5604 14.1686 84.9158 13.9111 85.326 13.7334C85.7361 13.5557 86.1805 13.4668 86.659 13.4668C87.1876 13.4668 87.6502 13.5557 88.0467 13.7334C88.4432 13.9111 88.7713 14.1618 89.0311 14.4854C89.2954 14.8044 89.4913 15.1849 89.6189 15.627C89.7511 16.069 89.8172 16.5566 89.8172 17.0898V17.7939H84.1023V16.6113H88.1902V16.4814C88.1811 16.1852 88.1219 15.9072 88.0125 15.6475C87.9077 15.3877 87.7459 15.1781 87.5271 15.0186C87.3084 14.859 87.0167 14.7793 86.6521 14.7793C86.3787 14.7793 86.1349 14.8385 85.9207 14.957C85.7111 15.071 85.5356 15.2373 85.3943 15.4561C85.2531 15.6748 85.1437 15.9391 85.0662 16.249C84.9933 16.5544 84.9568 16.8984 84.9568 17.2812V17.5547C84.9568 17.8783 85.0001 18.179 85.0867 18.457C85.1779 18.7305 85.31 18.9697 85.4832 19.1748C85.6564 19.3799 85.866 19.5417 86.1121 19.6602C86.3582 19.7741 86.6385 19.8311 86.9529 19.8311C87.3494 19.8311 87.7026 19.7513 88.0125 19.5918C88.3224 19.4323 88.5913 19.2067 88.8191 18.915L89.6873 19.7559C89.5278 19.9883 89.3204 20.2116 89.0652 20.4258C88.81 20.6354 88.4979 20.8063 88.1287 20.9385C87.7641 21.0706 87.3403 21.1367 86.8572 21.1367ZM100.832 17.7598H102.541C102.486 18.4115 102.304 18.9925 101.994 19.5029C101.684 20.0088 101.249 20.4076 100.688 20.6992C100.128 20.9909 99.4462 21.1367 98.6441 21.1367C98.0289 21.1367 97.4752 21.0273 96.983 20.8086C96.4908 20.5853 96.0693 20.2708 95.7184 19.8652C95.3674 19.4551 95.0986 18.9606 94.9117 18.3818C94.7294 17.8031 94.6383 17.1559 94.6383 16.4404V15.6133C94.6383 14.8978 94.7317 14.2507 94.9186 13.6719C95.11 13.0931 95.3834 12.5986 95.7389 12.1885C96.0943 11.7738 96.5204 11.457 97.0172 11.2383C97.5185 11.0195 98.0813 10.9102 98.7057 10.9102C99.4986 10.9102 100.169 11.056 100.715 11.3477C101.262 11.6393 101.686 12.0426 101.987 12.5576C102.292 13.0726 102.479 13.6628 102.547 14.3281H100.838C100.793 13.8997 100.693 13.5329 100.538 13.2275C100.387 12.9222 100.164 12.6898 99.8678 12.5303C99.5716 12.3662 99.1842 12.2842 98.7057 12.2842C98.3137 12.2842 97.9719 12.3571 97.6803 12.5029C97.3886 12.6488 97.1448 12.863 96.9488 13.1455C96.7529 13.4281 96.6048 13.7767 96.5045 14.1914C96.4088 14.6016 96.3609 15.071 96.3609 15.5996V16.4404C96.3609 16.9417 96.4042 17.3975 96.4908 17.8076C96.582 18.2132 96.7187 18.5618 96.901 18.8535C97.0878 19.1452 97.3248 19.3708 97.6119 19.5303C97.899 19.6898 98.2431 19.7695 98.6441 19.7695C99.1318 19.7695 99.526 19.6921 99.8268 19.5371C100.132 19.3822 100.362 19.1566 100.517 18.8604C100.677 18.5596 100.782 18.1927 100.832 17.7598ZM108.205 19.5166V15.9893C108.205 15.7249 108.157 15.4971 108.062 15.3057C107.966 15.1143 107.82 14.9661 107.624 14.8613C107.433 14.7565 107.191 14.7041 106.899 14.7041C106.631 14.7041 106.398 14.7497 106.202 14.8408C106.006 14.932 105.854 15.055 105.744 15.21C105.635 15.3649 105.58 15.5404 105.58 15.7363H103.939C103.939 15.4447 104.01 15.1621 104.151 14.8887C104.293 14.6152 104.498 14.3714 104.767 14.1572C105.035 13.943 105.357 13.7744 105.73 13.6514C106.104 13.5283 106.523 13.4668 106.988 13.4668C107.544 13.4668 108.036 13.5602 108.465 13.7471C108.898 13.9339 109.237 14.2165 109.483 14.5947C109.734 14.9684 109.859 15.4378 109.859 16.0029V19.291C109.859 19.6283 109.882 19.9313 109.928 20.2002C109.978 20.4645 110.049 20.6947 110.14 20.8906V21H108.451C108.374 20.8223 108.312 20.5967 108.267 20.3232C108.226 20.0452 108.205 19.7764 108.205 19.5166ZM108.444 16.502L108.458 17.5205H107.275C106.97 17.5205 106.701 17.5501 106.469 17.6094C106.236 17.6641 106.043 17.7461 105.888 17.8555C105.733 17.9648 105.617 18.097 105.539 18.252C105.462 18.4069 105.423 18.5824 105.423 18.7783C105.423 18.9743 105.468 19.1543 105.56 19.3184C105.651 19.4779 105.783 19.6032 105.956 19.6943C106.134 19.7855 106.348 19.8311 106.599 19.8311C106.936 19.8311 107.23 19.7627 107.48 19.626C107.736 19.4847 107.936 19.3138 108.082 19.1133C108.228 18.9082 108.305 18.7145 108.314 18.5322L108.848 19.2637C108.793 19.4505 108.7 19.651 108.567 19.8652C108.435 20.0794 108.262 20.2845 108.048 20.4805C107.838 20.6719 107.585 20.8291 107.289 20.9521C106.997 21.0752 106.66 21.1367 106.277 21.1367C105.794 21.1367 105.364 21.041 104.985 20.8496C104.607 20.6536 104.311 20.3916 104.097 20.0635C103.882 19.7308 103.775 19.3548 103.775 18.9355C103.775 18.5436 103.848 18.1973 103.994 17.8965C104.145 17.5911 104.363 17.3359 104.65 17.1309C104.942 16.9258 105.298 16.7708 105.717 16.666C106.136 16.5566 106.615 16.502 107.152 16.502H108.444ZM113.329 15.1074V21H111.682V13.6035H113.234L113.329 15.1074ZM113.063 17.0283L112.502 17.0215C112.502 16.5111 112.566 16.0394 112.694 15.6064C112.821 15.1735 113.008 14.7975 113.254 14.4785C113.5 14.1549 113.806 13.9066 114.17 13.7334C114.539 13.5557 114.966 13.4668 115.449 13.4668C115.786 13.4668 116.093 13.5169 116.371 13.6172C116.654 13.7129 116.898 13.8656 117.103 14.0752C117.313 14.2848 117.472 14.5537 117.581 14.8818C117.695 15.21 117.752 15.6064 117.752 16.0713V21H116.105V16.2148C116.105 15.8548 116.05 15.5723 115.941 15.3672C115.836 15.1621 115.683 15.0163 115.483 14.9297C115.287 14.8385 115.052 14.793 114.779 14.793C114.469 14.793 114.204 14.8522 113.986 14.9707C113.772 15.0892 113.596 15.251 113.459 15.4561C113.323 15.6611 113.222 15.8981 113.159 16.167C113.095 16.4359 113.063 16.723 113.063 17.0283ZM117.65 16.5908L116.877 16.7617C116.877 16.3151 116.939 15.8936 117.062 15.4971C117.19 15.096 117.374 14.7451 117.616 14.4443C117.862 14.139 118.165 13.8997 118.525 13.7266C118.885 13.5534 119.297 13.4668 119.762 13.4668C120.14 13.4668 120.478 13.5192 120.774 13.624C121.075 13.7243 121.33 13.8838 121.539 14.1025C121.749 14.3213 121.909 14.6061 122.018 14.957C122.127 15.3034 122.182 15.7227 122.182 16.2148V21H120.528V16.208C120.528 15.8343 120.473 15.5449 120.364 15.3398C120.259 15.1348 120.108 14.9935 119.912 14.916C119.717 14.834 119.482 14.793 119.208 14.793C118.953 14.793 118.728 14.8408 118.532 14.9365C118.34 15.0277 118.178 15.1576 118.046 15.3262C117.914 15.4902 117.814 15.6794 117.746 15.8936C117.682 16.1077 117.65 16.3402 117.65 16.5908ZM127.238 21.1367C126.691 21.1367 126.197 21.0479 125.755 20.8701C125.317 20.6878 124.943 20.4349 124.634 20.1113C124.328 19.7878 124.094 19.4072 123.929 18.9697C123.765 18.5322 123.683 18.0605 123.683 17.5547V17.2812C123.683 16.7025 123.768 16.1784 123.936 15.709C124.105 15.2396 124.34 14.8385 124.64 14.5059C124.941 14.1686 125.297 13.9111 125.707 13.7334C126.117 13.5557 126.561 13.4668 127.04 13.4668C127.568 13.4668 128.031 13.5557 128.428 13.7334C128.824 13.9111 129.152 14.1618 129.412 14.4854C129.676 14.8044 129.872 15.1849 130 15.627C130.132 16.069 130.198 16.5566 130.198 17.0898V17.7939H124.483V16.6113H128.571V16.4814C128.562 16.1852 128.503 15.9072 128.393 15.6475C128.289 15.3877 128.127 15.1781 127.908 15.0186C127.689 14.859 127.398 14.7793 127.033 14.7793C126.76 14.7793 126.516 14.8385 126.302 14.957C126.092 15.071 125.916 15.2373 125.775 15.4561C125.634 15.6748 125.525 15.9391 125.447 16.249C125.374 16.5544 125.338 16.8984 125.338 17.2812V17.5547C125.338 17.8783 125.381 18.179 125.468 18.457C125.559 18.7305 125.691 18.9697 125.864 19.1748C126.037 19.3799 126.247 19.5417 126.493 19.6602C126.739 19.7741 127.019 19.8311 127.334 19.8311C127.73 19.8311 128.083 19.7513 128.393 19.5918C128.703 19.4323 128.972 19.2067 129.2 18.915L130.068 19.7559C129.909 19.9883 129.701 20.2116 129.446 20.4258C129.191 20.6354 128.879 20.8063 128.51 20.9385C128.145 21.0706 127.721 21.1367 127.238 21.1367ZM133.238 15.0117V21H131.59V13.6035H133.162L133.238 15.0117ZM135.5 13.5557L135.487 15.0869C135.386 15.0687 135.277 15.055 135.158 15.0459C135.044 15.0368 134.931 15.0322 134.817 15.0322C134.534 15.0322 134.286 15.0732 134.071 15.1553C133.857 15.2327 133.677 15.3467 133.531 15.4971C133.39 15.6429 133.281 15.8206 133.203 16.0303C133.126 16.2399 133.08 16.4746 133.067 16.7344L132.691 16.7617C132.691 16.2969 132.736 15.8662 132.827 15.4697C132.918 15.0732 133.055 14.7246 133.238 14.4238C133.424 14.123 133.657 13.8883 133.935 13.7197C134.217 13.5511 134.543 13.4668 134.912 13.4668C135.013 13.4668 135.12 13.4759 135.234 13.4941C135.352 13.5124 135.441 13.5329 135.5 13.5557ZM140.556 19.5166V15.9893C140.556 15.7249 140.508 15.4971 140.413 15.3057C140.317 15.1143 140.171 14.9661 139.975 14.8613C139.784 14.7565 139.542 14.7041 139.251 14.7041C138.982 14.7041 138.749 14.7497 138.553 14.8408C138.357 14.932 138.205 15.055 138.095 15.21C137.986 15.3649 137.931 15.5404 137.931 15.7363H136.291C136.291 15.4447 136.361 15.1621 136.503 14.8887C136.644 14.6152 136.849 14.3714 137.118 14.1572C137.387 13.943 137.708 13.7744 138.082 13.6514C138.455 13.5283 138.875 13.4668 139.339 13.4668C139.895 13.4668 140.388 13.5602 140.816 13.7471C141.249 13.9339 141.588 14.2165 141.835 14.5947C142.085 14.9684 142.211 15.4378 142.211 16.0029V19.291C142.211 19.6283 142.233 19.9313 142.279 20.2002C142.329 20.4645 142.4 20.6947 142.491 20.8906V21H140.802C140.725 20.8223 140.663 20.5967 140.618 20.3232C140.577 20.0452 140.556 19.7764 140.556 19.5166ZM140.796 16.502L140.809 17.5205H139.627C139.321 17.5205 139.052 17.5501 138.82 17.6094C138.588 17.6641 138.394 17.7461 138.239 17.8555C138.084 17.9648 137.968 18.097 137.89 18.252C137.813 18.4069 137.774 18.5824 137.774 18.7783C137.774 18.9743 137.82 19.1543 137.911 19.3184C138.002 19.4779 138.134 19.6032 138.307 19.6943C138.485 19.7855 138.699 19.8311 138.95 19.8311C139.287 19.8311 139.581 19.7627 139.832 19.626C140.087 19.4847 140.287 19.3138 140.433 19.1133C140.579 18.9082 140.657 18.7145 140.666 18.5322L141.199 19.2637C141.144 19.4505 141.051 19.651 140.919 19.8652C140.786 20.0794 140.613 20.2845 140.399 20.4805C140.189 20.6719 139.936 20.8291 139.64 20.9521C139.349 21.0752 139.011 21.1367 138.629 21.1367C138.145 21.1367 137.715 21.041 137.337 20.8496C136.958 20.6536 136.662 20.3916 136.448 20.0635C136.234 19.7308 136.127 19.3548 136.127 18.9355C136.127 18.5436 136.199 18.1973 136.345 17.8965C136.496 17.5911 136.714 17.3359 137.002 17.1309C137.293 16.9258 137.649 16.7708 138.068 16.666C138.487 16.5566 138.966 16.502 139.504 16.502H140.796ZM151.789 19.5166V15.9893C151.789 15.7249 151.742 15.4971 151.646 15.3057C151.55 15.1143 151.404 14.9661 151.208 14.8613C151.017 14.7565 150.775 14.7041 150.484 14.7041C150.215 14.7041 149.982 14.7497 149.787 14.8408C149.591 14.932 149.438 15.055 149.329 15.21C149.219 15.3649 149.164 15.5404 149.164 15.7363H147.524C147.524 15.4447 147.594 15.1621 147.736 14.8887C147.877 14.6152 148.082 14.3714 148.351 14.1572C148.62 13.943 148.941 13.7744 149.315 13.6514C149.689 13.5283 150.108 13.4668 150.573 13.4668C151.129 13.4668 151.621 13.5602 152.049 13.7471C152.482 13.9339 152.822 14.2165 153.068 14.5947C153.318 14.9684 153.444 15.4378 153.444 16.0029V19.291C153.444 19.6283 153.467 19.9313 153.512 20.2002C153.562 20.4645 153.633 20.6947 153.724 20.8906V21H152.036C151.958 20.8223 151.897 20.5967 151.851 20.3232C151.81 20.0452 151.789 19.7764 151.789 19.5166ZM152.029 16.502L152.042 17.5205H150.86C150.554 17.5205 150.286 17.5501 150.053 17.6094C149.821 17.6641 149.627 17.7461 149.472 17.8555C149.317 17.9648 149.201 18.097 149.123 18.252C149.046 18.4069 149.007 18.5824 149.007 18.7783C149.007 18.9743 149.053 19.1543 149.144 19.3184C149.235 19.4779 149.367 19.6032 149.54 19.6943C149.718 19.7855 149.932 19.8311 150.183 19.8311C150.52 19.8311 150.814 19.7627 151.065 19.626C151.32 19.4847 151.521 19.3138 151.666 19.1133C151.812 18.9082 151.89 18.7145 151.899 18.5322L152.432 19.2637C152.377 19.4505 152.284 19.651 152.152 19.8652C152.02 20.0794 151.846 20.2845 151.632 20.4805C151.423 20.6719 151.17 20.8291 150.873 20.9521C150.582 21.0752 150.245 21.1367 149.862 21.1367C149.379 21.1367 148.948 21.041 148.57 20.8496C148.191 20.6536 147.895 20.3916 147.681 20.0635C147.467 19.7308 147.36 19.3548 147.36 18.9355C147.36 18.5436 147.433 18.1973 147.579 17.8965C147.729 17.5911 147.948 17.3359 148.235 17.1309C148.526 16.9258 148.882 16.7708 149.301 16.666C149.72 16.5566 150.199 16.502 150.737 16.502H152.029ZM159.717 19.2568V13.6035H161.371V21H159.812L159.717 19.2568ZM159.949 17.7188L160.503 17.7051C160.503 18.2018 160.448 18.6598 160.339 19.0791C160.229 19.4938 160.061 19.8561 159.833 20.166C159.605 20.4714 159.313 20.7106 158.958 20.8838C158.602 21.0524 158.176 21.1367 157.679 21.1367C157.319 21.1367 156.989 21.0843 156.688 20.9795C156.387 20.8747 156.128 20.7129 155.909 20.4941C155.695 20.2754 155.528 19.9906 155.41 19.6396C155.291 19.2887 155.232 18.8695 155.232 18.3818V13.6035H156.88V18.3955C156.88 18.6644 156.912 18.89 156.975 19.0723C157.039 19.25 157.126 19.3936 157.235 19.5029C157.345 19.6123 157.472 19.6898 157.618 19.7354C157.764 19.7809 157.919 19.8037 158.083 19.8037C158.552 19.8037 158.921 19.7126 159.19 19.5303C159.464 19.3434 159.657 19.0928 159.771 18.7783C159.89 18.4639 159.949 18.1107 159.949 17.7188ZM167.671 19.4688V10.5H169.325V21H167.828L167.671 19.4688ZM162.859 17.3838V17.2402C162.859 16.6797 162.925 16.1693 163.057 15.709C163.189 15.2441 163.38 14.8454 163.631 14.5127C163.882 14.1755 164.187 13.918 164.547 13.7402C164.907 13.5579 165.313 13.4668 165.764 13.4668C166.21 13.4668 166.602 13.5534 166.94 13.7266C167.277 13.8997 167.564 14.1481 167.801 14.4717C168.038 14.7907 168.227 15.1735 168.368 15.6201C168.51 16.0622 168.61 16.5544 168.669 17.0967V17.5547C168.61 18.0833 168.51 18.5664 168.368 19.0039C168.227 19.4414 168.038 19.8197 167.801 20.1387C167.564 20.4577 167.275 20.7038 166.933 20.877C166.596 21.0501 166.201 21.1367 165.75 21.1367C165.304 21.1367 164.9 21.0433 164.54 20.8564C164.185 20.6696 163.882 20.4076 163.631 20.0703C163.38 19.7331 163.189 19.3366 163.057 18.8809C162.925 18.4206 162.859 17.9215 162.859 17.3838ZM164.506 17.2402V17.3838C164.506 17.721 164.536 18.0355 164.595 18.3271C164.659 18.6188 164.757 18.8763 164.889 19.0996C165.021 19.3184 165.192 19.4915 165.402 19.6191C165.616 19.7422 165.871 19.8037 166.167 19.8037C166.541 19.8037 166.849 19.7217 167.09 19.5576C167.332 19.3936 167.521 19.1725 167.657 18.8945C167.799 18.612 167.894 18.2975 167.945 17.9512V16.7139C167.917 16.445 167.86 16.1943 167.774 15.9619C167.692 15.7295 167.58 15.5267 167.439 15.3535C167.297 15.1758 167.122 15.0391 166.912 14.9434C166.707 14.8431 166.463 14.793 166.181 14.793C165.88 14.793 165.625 14.8568 165.415 14.9844C165.206 15.112 165.032 15.2874 164.896 15.5107C164.764 15.734 164.666 15.9938 164.602 16.29C164.538 16.5863 164.506 16.903 164.506 17.2402ZM172.912 13.6035V21H171.257V13.6035H172.912ZM171.148 11.6621C171.148 11.4115 171.23 11.2041 171.394 11.04C171.563 10.8714 171.795 10.7871 172.091 10.7871C172.383 10.7871 172.613 10.8714 172.782 11.04C172.95 11.2041 173.035 11.4115 173.035 11.6621C173.035 11.9082 172.95 12.1133 172.782 12.2773C172.613 12.4414 172.383 12.5234 172.091 12.5234C171.795 12.5234 171.563 12.4414 171.394 12.2773C171.23 12.1133 171.148 11.9082 171.148 11.6621ZM174.502 17.3838V17.2266C174.502 16.6934 174.579 16.1989 174.734 15.7432C174.889 15.2829 175.113 14.8841 175.404 14.5469C175.701 14.2051 176.061 13.9408 176.484 13.7539C176.913 13.5625 177.396 13.4668 177.934 13.4668C178.476 13.4668 178.959 13.5625 179.383 13.7539C179.811 13.9408 180.174 14.2051 180.47 14.5469C180.766 14.8841 180.992 15.2829 181.146 15.7432C181.301 16.1989 181.379 16.6934 181.379 17.2266V17.3838C181.379 17.917 181.301 18.4115 181.146 18.8672C180.992 19.3229 180.766 19.7217 180.47 20.0635C180.174 20.4007 179.813 20.665 179.39 20.8564C178.966 21.0433 178.485 21.1367 177.947 21.1367C177.405 21.1367 176.92 21.0433 176.491 20.8564C176.067 20.665 175.707 20.4007 175.411 20.0635C175.115 19.7217 174.889 19.3229 174.734 18.8672C174.579 18.4115 174.502 17.917 174.502 17.3838ZM176.149 17.2266V17.3838C176.149 17.7165 176.184 18.0309 176.252 18.3271C176.32 18.6234 176.427 18.8831 176.573 19.1064C176.719 19.3298 176.906 19.5052 177.134 19.6328C177.362 19.7604 177.633 19.8242 177.947 19.8242C178.253 19.8242 178.517 19.7604 178.74 19.6328C178.968 19.5052 179.155 19.3298 179.301 19.1064C179.447 18.8831 179.554 18.6234 179.622 18.3271C179.695 18.0309 179.731 17.7165 179.731 17.3838V17.2266C179.731 16.8984 179.695 16.5885 179.622 16.2969C179.554 16.0007 179.444 15.7386 179.294 15.5107C179.148 15.2829 178.961 15.1051 178.733 14.9775C178.51 14.8454 178.243 14.7793 177.934 14.7793C177.624 14.7793 177.355 14.8454 177.127 14.9775C176.904 15.1051 176.719 15.2829 176.573 15.5107C176.427 15.7386 176.32 16.0007 176.252 16.2969C176.184 16.5885 176.149 16.8984 176.149 17.2266Z" fill="#4A4459"/>
</g>
</g>
</g>
</g>
</svg>
