<svg width="280" height="32" viewBox="0 0 280 32" fill="none" xmlns="http://www.w3.org/2000/svg">
<rect width="280" height="32" fill="#1E1E1E"/>
<g id="MacBook Air - 1">
<rect width="1280" height="832" transform="translate(-40 -274)" fill="black"/>
<g id="Input Devices">
<g id="Filter chip">
<rect x="0.5" y="0.5" width="279" height="31" rx="7.5" stroke="#CAC4D0"/>
<g id="state-layer">
<path id="label-text" d="M17.9002 11.0469H19.4314L22.3094 18.7236L25.1805 11.0469H26.7117L22.9109 21H21.6941L17.9002 11.0469ZM17.2029 11.0469H18.659L18.9119 17.6914V21H17.2029V11.0469ZM25.9529 11.0469H27.4158V21H25.7V17.6914L25.9529 11.0469ZM33.5588 19.5166V15.9893C33.5588 15.7249 33.5109 15.4971 33.4152 15.3057C33.3195 15.1143 33.1737 14.9661 32.9777 14.8613C32.7863 14.7565 32.5448 14.7041 32.2531 14.7041C31.9842 14.7041 31.7518 14.7497 31.5559 14.8408C31.3599 14.932 31.2072 15.055 31.0978 15.21C30.9885 15.3649 30.9338 15.5404 30.9338 15.7363H29.2932C29.2932 15.4447 29.3638 15.1621 29.5051 14.8887C29.6464 14.6152 29.8514 14.3714 30.1203 14.1572C30.3892 13.943 30.7105 13.7744 31.0842 13.6514C31.4579 13.5283 31.8771 13.4668 32.342 13.4668C32.898 13.4668 33.3902 13.5602 33.8186 13.7471C34.2515 13.9339 34.591 14.2165 34.8371 14.5947C35.0878 14.9684 35.2131 15.4378 35.2131 16.0029V19.291C35.2131 19.6283 35.2359 19.9313 35.2814 20.2002C35.3316 20.4645 35.4022 20.6947 35.4934 20.8906V21H33.8049C33.7274 20.8223 33.6659 20.5967 33.6203 20.3232C33.5793 20.0452 33.5588 19.7764 33.5588 19.5166ZM33.798 16.502L33.8117 17.5205H32.6291C32.3238 17.5205 32.0549 17.5501 31.8225 17.6094C31.59 17.6641 31.3964 17.7461 31.2414 17.8555C31.0865 17.9648 30.9702 18.097 30.8928 18.252C30.8153 18.4069 30.7766 18.5824 30.7766 18.7783C30.7766 18.9743 30.8221 19.1543 30.9133 19.3184C31.0044 19.4779 31.1366 19.6032 31.3098 19.6943C31.4875 19.7855 31.7017 19.8311 31.9523 19.8311C32.2896 19.8311 32.5835 19.7627 32.8342 19.626C33.0894 19.4847 33.2899 19.3138 33.4357 19.1133C33.5816 18.9082 33.659 18.7145 33.6682 18.5322L34.2014 19.2637C34.1467 19.4505 34.0533 19.651 33.9211 19.8652C33.7889 20.0794 33.6158 20.2845 33.4016 20.4805C33.1919 20.6719 32.939 20.8291 32.6428 20.9521C32.3511 21.0752 32.0139 21.1367 31.6311 21.1367C31.148 21.1367 30.7173 21.041 30.3391 20.8496C29.9608 20.6536 29.6646 20.3916 29.4504 20.0635C29.2362 19.7308 29.1291 19.3548 29.1291 18.9355C29.1291 18.5436 29.202 18.1973 29.3478 17.8965C29.4982 17.5911 29.717 17.3359 30.0041 17.1309C30.2958 16.9258 30.6512 16.7708 31.0705 16.666C31.4898 16.5566 31.9683 16.502 32.5061 16.502H33.798ZM40.0572 19.8242C40.3261 19.8242 40.5676 19.7718 40.7818 19.667C41.0006 19.5576 41.176 19.4072 41.3082 19.2158C41.4449 19.0244 41.5201 18.8034 41.5338 18.5527H43.0855C43.0764 19.0312 42.9352 19.4665 42.6617 19.8584C42.3883 20.2503 42.026 20.5625 41.5748 20.7949C41.1236 21.0228 40.6246 21.1367 40.0777 21.1367C39.5126 21.1367 39.0204 21.041 38.6012 20.8496C38.1819 20.6536 37.8333 20.3848 37.5553 20.043C37.2773 19.7012 37.0676 19.307 36.9264 18.8604C36.7896 18.4137 36.7213 17.9352 36.7213 17.4248V17.1855C36.7213 16.6751 36.7896 16.1966 36.9264 15.75C37.0676 15.2988 37.2773 14.9023 37.5553 14.5605C37.8333 14.2188 38.1819 13.9521 38.6012 13.7607C39.0204 13.5648 39.5103 13.4668 40.0709 13.4668C40.6633 13.4668 41.1829 13.5853 41.6295 13.8223C42.0761 14.0547 42.427 14.3805 42.6822 14.7998C42.942 15.2145 43.0764 15.6976 43.0855 16.249H41.5338C41.5201 15.9756 41.4518 15.7295 41.3287 15.5107C41.2102 15.2874 41.0416 15.1097 40.8228 14.9775C40.6087 14.8454 40.3512 14.7793 40.0504 14.7793C39.7177 14.7793 39.442 14.8477 39.2232 14.9844C39.0045 15.1165 38.8336 15.2988 38.7105 15.5312C38.5875 15.7591 38.4986 16.0166 38.4439 16.3037C38.3938 16.5863 38.3687 16.8802 38.3687 17.1855V17.4248C38.3687 17.7301 38.3938 18.0264 38.4439 18.3135C38.4941 18.6006 38.5807 18.8581 38.7037 19.0859C38.8313 19.3092 39.0045 19.4893 39.2232 19.626C39.442 19.7581 39.72 19.8242 40.0572 19.8242ZM48.3467 16.502H45.8105L45.7969 15.251H48.0117C48.3854 15.251 48.7021 15.1963 48.9619 15.0869C49.2262 14.973 49.4268 14.8112 49.5635 14.6016C49.7002 14.3874 49.7686 14.1299 49.7686 13.8291C49.7686 13.4964 49.7047 13.2253 49.5771 13.0156C49.4495 12.806 49.2536 12.6533 48.9893 12.5576C48.7295 12.4619 48.3968 12.4141 47.9912 12.4141H46.3301V21H44.6143V11.0469H47.9912C48.5381 11.0469 49.0257 11.0993 49.4541 11.2041C49.887 11.3089 50.2539 11.473 50.5547 11.6963C50.86 11.915 51.0902 12.193 51.2451 12.5303C51.4046 12.8675 51.4844 13.2686 51.4844 13.7334C51.4844 14.1436 51.3864 14.5195 51.1904 14.8613C50.9945 15.1986 50.7051 15.4743 50.3223 15.6885C49.9394 15.9027 49.4632 16.0303 48.8936 16.0713L48.3467 16.502ZM48.2715 21H45.2705L46.043 19.6396H48.2715C48.6589 19.6396 48.9824 19.5758 49.2422 19.4482C49.5019 19.3161 49.6956 19.1361 49.8232 18.9082C49.9554 18.6758 50.0215 18.4046 50.0215 18.0947C50.0215 17.7712 49.9645 17.4909 49.8506 17.2539C49.7366 17.0124 49.5566 16.8278 49.3105 16.7002C49.0644 16.568 48.7432 16.502 48.3467 16.502H46.4189L46.4326 15.251H48.9414L49.3311 15.7227C49.8779 15.7409 50.3268 15.8617 50.6777 16.085C51.0332 16.3083 51.2975 16.5977 51.4707 16.9531C51.6439 17.3086 51.7305 17.6914 51.7305 18.1016C51.7305 18.735 51.5915 19.266 51.3135 19.6943C51.04 20.1227 50.6458 20.4486 50.1309 20.6719C49.6159 20.8906 48.9961 21 48.2715 21ZM53.0814 17.3838V17.2266C53.0814 16.6934 53.1589 16.1989 53.3139 15.7432C53.4688 15.2829 53.6921 14.8841 53.9838 14.5469C54.28 14.2051 54.64 13.9408 55.0639 13.7539C55.4923 13.5625 55.9753 13.4668 56.5131 13.4668C57.0554 13.4668 57.5385 13.5625 57.9623 13.7539C58.3907 13.9408 58.753 14.2051 59.0492 14.5469C59.3454 14.8841 59.571 15.2829 59.726 15.7432C59.8809 16.1989 59.9584 16.6934 59.9584 17.2266V17.3838C59.9584 17.917 59.8809 18.4115 59.726 18.8672C59.571 19.3229 59.3454 19.7217 59.0492 20.0635C58.753 20.4007 58.393 20.665 57.9691 20.8564C57.5453 21.0433 57.0645 21.1367 56.5268 21.1367C55.9844 21.1367 55.4991 21.0433 55.0707 20.8564C54.6469 20.665 54.2868 20.4007 53.9906 20.0635C53.6944 19.7217 53.4688 19.3229 53.3139 18.8672C53.1589 18.4115 53.0814 17.917 53.0814 17.3838ZM54.7289 17.2266V17.3838C54.7289 17.7165 54.7631 18.0309 54.8314 18.3271C54.8998 18.6234 55.0069 18.8831 55.1527 19.1064C55.2986 19.3298 55.4854 19.5052 55.7133 19.6328C55.9411 19.7604 56.2123 19.8242 56.5268 19.8242C56.8321 19.8242 57.0964 19.7604 57.3197 19.6328C57.5476 19.5052 57.7344 19.3298 57.8803 19.1064C58.0261 18.8831 58.1332 18.6234 58.2016 18.3271C58.2745 18.0309 58.3109 17.7165 58.3109 17.3838V17.2266C58.3109 16.8984 58.2745 16.5885 58.2016 16.2969C58.1332 16.0007 58.0238 15.7386 57.8734 15.5107C57.7276 15.2829 57.5408 15.1051 57.3129 14.9775C57.0896 14.8454 56.823 14.7793 56.5131 14.7793C56.2032 14.7793 55.9343 14.8454 55.7064 14.9775C55.4831 15.1051 55.2986 15.2829 55.1527 15.5107C55.0069 15.7386 54.8998 16.0007 54.8314 16.2969C54.7631 16.5885 54.7289 16.8984 54.7289 17.2266ZM61.1248 17.3838V17.2266C61.1248 16.6934 61.2023 16.1989 61.3572 15.7432C61.5122 15.2829 61.7355 14.8841 62.0271 14.5469C62.3234 14.2051 62.6834 13.9408 63.1072 13.7539C63.5356 13.5625 64.0187 13.4668 64.5564 13.4668C65.0988 13.4668 65.5818 13.5625 66.0057 13.7539C66.434 13.9408 66.7964 14.2051 67.0926 14.5469C67.3888 14.8841 67.6144 15.2829 67.7693 15.7432C67.9243 16.1989 68.0018 16.6934 68.0018 17.2266V17.3838C68.0018 17.917 67.9243 18.4115 67.7693 18.8672C67.6144 19.3229 67.3888 19.7217 67.0926 20.0635C66.7964 20.4007 66.4363 20.665 66.0125 20.8564C65.5887 21.0433 65.1079 21.1367 64.5701 21.1367C64.0278 21.1367 63.5424 21.0433 63.1141 20.8564C62.6902 20.665 62.3302 20.4007 62.034 20.0635C61.7378 19.7217 61.5122 19.3229 61.3572 18.8672C61.2023 18.4115 61.1248 17.917 61.1248 17.3838ZM62.7723 17.2266V17.3838C62.7723 17.7165 62.8064 18.0309 62.8748 18.3271C62.9432 18.6234 63.0503 18.8831 63.1961 19.1064C63.3419 19.3298 63.5288 19.5052 63.7566 19.6328C63.9845 19.7604 64.2557 19.8242 64.5701 19.8242C64.8755 19.8242 65.1398 19.7604 65.3631 19.6328C65.5909 19.5052 65.7778 19.3298 65.9236 19.1064C66.0695 18.8831 66.1766 18.6234 66.2449 18.3271C66.3178 18.0309 66.3543 17.7165 66.3543 17.3838V17.2266C66.3543 16.8984 66.3178 16.5885 66.2449 16.2969C66.1766 16.0007 66.0672 15.7386 65.9168 15.5107C65.771 15.2829 65.5841 15.1051 65.3562 14.9775C65.1329 14.8454 64.8663 14.7793 64.5564 14.7793C64.2465 14.7793 63.9777 14.8454 63.7498 14.9775C63.5265 15.1051 63.3419 15.2829 63.1961 15.5107C63.0503 15.7386 62.9432 16.0007 62.8748 16.2969C62.8064 16.5885 62.7723 16.8984 62.7723 17.2266ZM71.1437 10.5V21H69.4894V10.5H71.1437ZM75.7375 13.6035L72.5178 17.1719L70.7541 18.9766L70.3234 17.582L71.6564 15.9346L73.7482 13.6035H75.7375ZM74.1037 21L71.7043 17.5273L72.7434 16.3721L76.0109 21H74.1037ZM84.4141 17.2881H81.8232V15.9277H84.4141C84.8652 15.9277 85.2298 15.8548 85.5078 15.709C85.7858 15.5632 85.9886 15.3626 86.1162 15.1074C86.2484 14.8477 86.3144 14.5514 86.3144 14.2188C86.3144 13.9043 86.2484 13.6104 86.1162 13.3369C85.9886 13.0589 85.7858 12.8356 85.5078 12.667C85.2298 12.4984 84.8652 12.4141 84.4141 12.4141H82.3496V21H80.6338V11.0469H84.4141C85.1842 11.0469 85.8382 11.1836 86.376 11.457C86.9183 11.7259 87.3307 12.0996 87.6133 12.5781C87.8958 13.0521 88.0371 13.5944 88.0371 14.2051C88.0371 14.8477 87.8958 15.3991 87.6133 15.8594C87.3307 16.3197 86.9183 16.6729 86.376 16.9189C85.8382 17.165 85.1842 17.2881 84.4141 17.2881ZM91.1654 15.0117V21H89.518V13.6035H91.0902L91.1654 15.0117ZM93.4281 13.5557L93.4145 15.0869C93.3142 15.0687 93.2048 15.055 93.0863 15.0459C92.9724 15.0368 92.8585 15.0322 92.7445 15.0322C92.462 15.0322 92.2136 15.0732 91.9994 15.1553C91.7852 15.2327 91.6052 15.3467 91.4594 15.4971C91.3181 15.6429 91.2087 15.8206 91.1312 16.0303C91.0538 16.2399 91.0082 16.4746 90.9945 16.7344L90.6186 16.7617C90.6186 16.2969 90.6641 15.8662 90.7553 15.4697C90.8464 15.0732 90.9831 14.7246 91.1654 14.4238C91.3523 14.123 91.5847 13.8883 91.8627 13.7197C92.1452 13.5511 92.4711 13.4668 92.8402 13.4668C92.9405 13.4668 93.0476 13.4759 93.1615 13.4941C93.28 13.5124 93.3689 13.5329 93.4281 13.5557ZM94.0682 17.3838V17.2266C94.0682 16.6934 94.1456 16.1989 94.3006 15.7432C94.4555 15.2829 94.6788 14.8841 94.9705 14.5469C95.2667 14.2051 95.6268 13.9408 96.0506 13.7539C96.479 13.5625 96.962 13.4668 97.4998 13.4668C98.0421 13.4668 98.5252 13.5625 98.949 13.7539C99.3774 13.9408 99.7397 14.2051 100.036 14.5469C100.332 14.8841 100.558 15.2829 100.713 15.7432C100.868 16.1989 100.945 16.6934 100.945 17.2266V17.3838C100.945 17.917 100.868 18.4115 100.713 18.8672C100.558 19.3229 100.332 19.7217 100.036 20.0635C99.7397 20.4007 99.3797 20.665 98.9559 20.8564C98.532 21.0433 98.0512 21.1367 97.5135 21.1367C96.9712 21.1367 96.4858 21.0433 96.0574 20.8564C95.6336 20.665 95.2736 20.4007 94.9773 20.0635C94.6811 19.7217 94.4555 19.3229 94.3006 18.8672C94.1456 18.4115 94.0682 17.917 94.0682 17.3838ZM95.7156 17.2266V17.3838C95.7156 17.7165 95.7498 18.0309 95.8182 18.3271C95.8865 18.6234 95.9936 18.8831 96.1395 19.1064C96.2853 19.3298 96.4721 19.5052 96.7 19.6328C96.9279 19.7604 97.199 19.8242 97.5135 19.8242C97.8188 19.8242 98.0831 19.7604 98.3064 19.6328C98.5343 19.5052 98.7212 19.3298 98.867 19.1064C99.0128 18.8831 99.1199 18.6234 99.1883 18.3271C99.2612 18.0309 99.2977 17.7165 99.2977 17.3838V17.2266C99.2977 16.8984 99.2612 16.5885 99.1883 16.2969C99.1199 16.0007 99.0105 15.7386 98.8602 15.5107C98.7143 15.2829 98.5275 15.1051 98.2996 14.9775C98.0763 14.8454 97.8097 14.7793 97.4998 14.7793C97.1899 14.7793 96.921 14.8454 96.6932 14.9775C96.4699 15.1051 96.2853 15.2829 96.1395 15.5107C95.9936 15.7386 95.8865 16.0007 95.8182 16.2969C95.7498 16.5885 95.7156 16.8984 95.7156 17.2266ZM106.874 11.0469H108.405L111.283 18.7236L114.154 11.0469H115.685L111.884 21H110.668L106.874 11.0469ZM106.176 11.0469H107.632L107.885 17.6914V21H106.176V11.0469ZM114.926 11.0469H116.389V21H114.673V17.6914L114.926 11.0469ZM120.126 13.6035V21H118.472V13.6035H120.126ZM118.362 11.6621C118.362 11.4115 118.444 11.2041 118.608 11.04C118.777 10.8714 119.009 10.7871 119.306 10.7871C119.597 10.7871 119.827 10.8714 119.996 11.04C120.165 11.2041 120.249 11.4115 120.249 11.6621C120.249 11.9082 120.165 12.1133 119.996 12.2773C119.827 12.4414 119.597 12.5234 119.306 12.5234C119.009 12.5234 118.777 12.4414 118.608 12.2773C118.444 12.1133 118.362 11.9082 118.362 11.6621ZM125.052 19.8242C125.321 19.8242 125.563 19.7718 125.777 19.667C125.996 19.5576 126.171 19.4072 126.303 19.2158C126.44 19.0244 126.515 18.8034 126.529 18.5527H128.08C128.071 19.0312 127.93 19.4665 127.657 19.8584C127.383 20.2503 127.021 20.5625 126.57 20.7949C126.119 21.0228 125.62 21.1367 125.073 21.1367C124.508 21.1367 124.015 21.041 123.596 20.8496C123.177 20.6536 122.828 20.3848 122.55 20.043C122.272 19.7012 122.063 19.307 121.921 18.8604C121.785 18.4137 121.716 17.9352 121.716 17.4248V17.1855C121.716 16.6751 121.785 16.1966 121.921 15.75C122.063 15.2988 122.272 14.9023 122.55 14.5605C122.828 14.2188 123.177 13.9521 123.596 13.7607C124.015 13.5648 124.505 13.4668 125.066 13.4668C125.658 13.4668 126.178 13.5853 126.624 13.8223C127.071 14.0547 127.422 14.3805 127.677 14.7998C127.937 15.2145 128.071 15.6976 128.08 16.249H126.529C126.515 15.9756 126.447 15.7295 126.324 15.5107C126.205 15.2874 126.037 15.1097 125.818 14.9775C125.604 14.8454 125.346 14.7793 125.045 14.7793C124.713 14.7793 124.437 14.8477 124.218 14.9844C123.999 15.1165 123.829 15.2988 123.705 15.5312C123.582 15.7591 123.494 16.0166 123.439 16.3037C123.389 16.5863 123.364 16.8802 123.364 17.1855V17.4248C123.364 17.7301 123.389 18.0264 123.439 18.3135C123.489 18.6006 123.576 18.8581 123.699 19.0859C123.826 19.3092 123.999 19.4893 124.218 19.626C124.437 19.7581 124.715 19.8242 125.052 19.8242ZM131.099 15.0117V21H129.452V13.6035H131.024L131.099 15.0117ZM133.362 13.5557L133.348 15.0869C133.248 15.0687 133.139 15.055 133.02 15.0459C132.906 15.0368 132.792 15.0322 132.679 15.0322C132.396 15.0322 132.148 15.0732 131.933 15.1553C131.719 15.2327 131.539 15.3467 131.393 15.4971C131.252 15.6429 131.143 15.8206 131.065 16.0303C130.988 16.2399 130.942 16.4746 130.929 16.7344L130.553 16.7617C130.553 16.2969 130.598 15.8662 130.689 15.4697C130.78 15.0732 130.917 14.7246 131.099 14.4238C131.286 14.123 131.519 13.8883 131.797 13.7197C132.079 13.5511 132.405 13.4668 132.774 13.4668C132.874 13.4668 132.982 13.4759 133.096 13.4941C133.214 13.5124 133.303 13.5329 133.362 13.5557ZM134.002 17.3838V17.2266C134.002 16.6934 134.08 16.1989 134.235 15.7432C134.39 15.2829 134.613 14.8841 134.904 14.5469C135.201 14.2051 135.561 13.9408 135.985 13.7539C136.413 13.5625 136.896 13.4668 137.434 13.4668C137.976 13.4668 138.459 13.5625 138.883 13.7539C139.311 13.9408 139.674 14.2051 139.97 14.5469C140.266 14.8841 140.492 15.2829 140.647 15.7432C140.802 16.1989 140.879 16.6934 140.879 17.2266V17.3838C140.879 17.917 140.802 18.4115 140.647 18.8672C140.492 19.3229 140.266 19.7217 139.97 20.0635C139.674 20.4007 139.314 20.665 138.89 20.8564C138.466 21.0433 137.985 21.1367 137.447 21.1367C136.905 21.1367 136.42 21.0433 135.991 20.8564C135.568 20.665 135.208 20.4007 134.911 20.0635C134.615 19.7217 134.39 19.3229 134.235 18.8672C134.08 18.4115 134.002 17.917 134.002 17.3838ZM135.65 17.2266V17.3838C135.65 17.7165 135.684 18.0309 135.752 18.3271C135.821 18.6234 135.928 18.8831 136.073 19.1064C136.219 19.3298 136.406 19.5052 136.634 19.6328C136.862 19.7604 137.133 19.8242 137.447 19.8242C137.753 19.8242 138.017 19.7604 138.24 19.6328C138.468 19.5052 138.655 19.3298 138.801 19.1064C138.947 18.8831 139.054 18.6234 139.122 18.3271C139.195 18.0309 139.232 17.7165 139.232 17.3838V17.2266C139.232 16.8984 139.195 16.5885 139.122 16.2969C139.054 16.0007 138.945 15.7386 138.794 15.5107C138.648 15.2829 138.461 15.1051 138.234 14.9775C138.01 14.8454 137.744 14.7793 137.434 14.7793C137.124 14.7793 136.855 14.8454 136.627 14.9775C136.404 15.1051 136.219 15.2829 136.073 15.5107C135.928 15.7386 135.821 16.0007 135.752 16.2969C135.684 16.5885 135.65 16.8984 135.65 17.2266ZM144.014 15.0254V23.8438H142.367V13.6035H143.884L144.014 15.0254ZM148.834 17.2334V17.377C148.834 17.9147 148.77 18.4137 148.642 18.874C148.519 19.3298 148.335 19.7285 148.088 20.0703C147.847 20.4076 147.548 20.6696 147.193 20.8564C146.837 21.0433 146.427 21.1367 145.962 21.1367C145.502 21.1367 145.099 21.0524 144.753 20.8838C144.411 20.7106 144.121 20.4668 143.884 20.1523C143.647 19.8379 143.456 19.4688 143.31 19.0449C143.169 18.6165 143.069 18.1471 143.009 17.6367V17.083C143.069 16.5407 143.169 16.0485 143.31 15.6064C143.456 15.1644 143.647 14.7839 143.884 14.4648C144.121 14.1458 144.411 13.8997 144.753 13.7266C145.094 13.5534 145.493 13.4668 145.949 13.4668C146.414 13.4668 146.826 13.5579 147.186 13.7402C147.546 13.918 147.849 14.1732 148.095 14.5059C148.341 14.834 148.526 15.2305 148.649 15.6953C148.772 16.1556 148.834 16.6683 148.834 17.2334ZM147.186 17.377V17.2334C147.186 16.8916 147.154 16.5749 147.09 16.2832C147.027 15.987 146.926 15.7272 146.79 15.5039C146.653 15.2806 146.477 15.1074 146.263 14.9844C146.054 14.8568 145.801 14.793 145.504 14.793C145.213 14.793 144.962 14.8431 144.753 14.9434C144.543 15.0391 144.367 15.1735 144.226 15.3467C144.085 15.5199 143.976 15.7227 143.898 15.9551C143.821 16.1829 143.766 16.4313 143.734 16.7002V18.0264C143.789 18.3545 143.882 18.6553 144.014 18.9287C144.146 19.2021 144.333 19.4209 144.575 19.585C144.821 19.7445 145.135 19.8242 145.518 19.8242C145.814 19.8242 146.067 19.7604 146.277 19.6328C146.487 19.5052 146.657 19.3298 146.79 19.1064C146.926 18.8786 147.027 18.6165 147.09 18.3203C147.154 18.0241 147.186 17.7096 147.186 17.377ZM151.962 10.5V21H150.321V10.5H151.962ZM151.675 17.0283L151.142 17.0215C151.146 16.5111 151.217 16.0394 151.354 15.6064C151.495 15.1735 151.691 14.7975 151.941 14.4785C152.197 14.1549 152.502 13.9066 152.857 13.7334C153.213 13.5557 153.607 13.4668 154.04 13.4668C154.405 13.4668 154.733 13.5169 155.024 13.6172C155.321 13.7174 155.576 13.8792 155.79 14.1025C156.004 14.3213 156.166 14.6084 156.275 14.9639C156.389 15.3148 156.446 15.7432 156.446 16.249V21H154.792V16.2354C154.792 15.8799 154.74 15.5973 154.635 15.3877C154.535 15.1781 154.386 15.0277 154.19 14.9365C153.994 14.8408 153.755 14.793 153.473 14.793C153.176 14.793 152.914 14.8522 152.687 14.9707C152.463 15.0892 152.276 15.251 152.126 15.4561C151.976 15.6611 151.862 15.8981 151.784 16.167C151.711 16.4359 151.675 16.723 151.675 17.0283ZM157.9 17.3838V17.2266C157.9 16.6934 157.977 16.1989 158.132 15.7432C158.287 15.2829 158.51 14.8841 158.802 14.5469C159.098 14.2051 159.458 13.9408 159.882 13.7539C160.311 13.5625 160.794 13.4668 161.331 13.4668C161.874 13.4668 162.357 13.5625 162.781 13.7539C163.209 13.9408 163.571 14.2051 163.868 14.5469C164.164 14.8841 164.389 15.2829 164.544 15.7432C164.699 16.1989 164.777 16.6934 164.777 17.2266V17.3838C164.777 17.917 164.699 18.4115 164.544 18.8672C164.389 19.3229 164.164 19.7217 163.868 20.0635C163.571 20.4007 163.211 20.665 162.787 20.8564C162.364 21.0433 161.883 21.1367 161.345 21.1367C160.803 21.1367 160.317 21.0433 159.889 20.8564C159.465 20.665 159.105 20.4007 158.809 20.0635C158.513 19.7217 158.287 19.3229 158.132 18.8672C157.977 18.4115 157.9 17.917 157.9 17.3838ZM159.547 17.2266V17.3838C159.547 17.7165 159.581 18.0309 159.65 18.3271C159.718 18.6234 159.825 18.8831 159.971 19.1064C160.117 19.3298 160.304 19.5052 160.532 19.6328C160.759 19.7604 161.031 19.8242 161.345 19.8242C161.65 19.8242 161.915 19.7604 162.138 19.6328C162.366 19.5052 162.553 19.3298 162.699 19.1064C162.844 18.8831 162.952 18.6234 163.02 18.3271C163.093 18.0309 163.129 17.7165 163.129 17.3838V17.2266C163.129 16.8984 163.093 16.5885 163.02 16.2969C162.952 16.0007 162.842 15.7386 162.692 15.5107C162.546 15.2829 162.359 15.1051 162.131 14.9775C161.908 14.8454 161.641 14.7793 161.331 14.7793C161.022 14.7793 160.753 14.8454 160.525 14.9775C160.301 15.1051 160.117 15.2829 159.971 15.5107C159.825 15.7386 159.718 16.0007 159.65 16.2969C159.581 16.5885 159.547 16.8984 159.547 17.2266ZM167.891 15.1826V21H166.244V13.6035H167.796L167.891 15.1826ZM167.597 17.0283L167.064 17.0215C167.069 16.4974 167.142 16.0166 167.283 15.5791C167.429 15.1416 167.629 14.7656 167.885 14.4512C168.144 14.1367 168.454 13.8952 168.814 13.7266C169.174 13.5534 169.575 13.4668 170.017 13.4668C170.373 13.4668 170.694 13.5169 170.981 13.6172C171.273 13.7129 171.521 13.8701 171.726 14.0889C171.936 14.3076 172.096 14.5924 172.205 14.9434C172.314 15.2897 172.369 15.7158 172.369 16.2217V21H170.715V16.2148C170.715 15.8594 170.662 15.5791 170.557 15.374C170.457 15.1644 170.309 15.0163 170.113 14.9297C169.922 14.8385 169.682 14.793 169.395 14.793C169.113 14.793 168.86 14.8522 168.637 14.9707C168.413 15.0892 168.224 15.251 168.069 15.4561C167.919 15.6611 167.803 15.8981 167.721 16.167C167.638 16.4359 167.597 16.723 167.597 17.0283ZM177.411 21.1367C176.864 21.1367 176.37 21.0479 175.928 20.8701C175.49 20.6878 175.117 20.4349 174.807 20.1113C174.502 19.7878 174.267 19.4072 174.103 18.9697C173.939 18.5322 173.857 18.0605 173.857 17.5547V17.2812C173.857 16.7025 173.941 16.1784 174.11 15.709C174.278 15.2396 174.513 14.8385 174.814 14.5059C175.114 14.1686 175.47 13.9111 175.88 13.7334C176.29 13.5557 176.735 13.4668 177.213 13.4668C177.742 13.4668 178.204 13.5557 178.601 13.7334C178.997 13.9111 179.325 14.1618 179.585 14.4854C179.849 14.8044 180.045 15.1849 180.173 15.627C180.305 16.069 180.371 16.5566 180.371 17.0898V17.7939H174.656V16.6113H178.744V16.4814C178.735 16.1852 178.676 15.9072 178.567 15.6475C178.462 15.3877 178.3 15.1781 178.081 15.0186C177.863 14.859 177.571 14.7793 177.206 14.7793C176.933 14.7793 176.689 14.8385 176.475 14.957C176.265 15.071 176.09 15.2373 175.948 15.4561C175.807 15.6748 175.698 15.9391 175.62 16.249C175.547 16.5544 175.511 16.8984 175.511 17.2812V17.5547C175.511 17.8783 175.554 18.179 175.641 18.457C175.732 18.7305 175.864 18.9697 176.037 19.1748C176.21 19.3799 176.42 19.5417 176.666 19.6602C176.912 19.7741 177.193 19.8311 177.507 19.8311C177.904 19.8311 178.257 19.7513 178.567 19.5918C178.877 19.4323 179.145 19.2067 179.373 18.915L180.241 19.7559C180.082 19.9883 179.875 20.2116 179.619 20.4258C179.364 20.6354 179.052 20.8063 178.683 20.9385C178.318 21.0706 177.894 21.1367 177.411 21.1367Z" fill="white"/>
</g>
</g>
</g>
</g>
</svg>
