<svg width="48" height="48" viewBox="0 0 48 48" fill="none" xmlns="http://www.w3.org/2000/svg">
<rect width="48" height="48" fill="#1E1E1E"/>
<g id="MacBook Air - 1">
<rect width="1280" height="832" transform="translate(-397 -46)" fill="black"/>
<g id="input">
<path id="Vector" d="M42 6.02H6C3.8 6.02 2 7.82 2 10.02V18H6V9.98H42V38.04H6V30H2V38.02C2 40.22 3.8 41.98 6 41.98H42C44.2 41.98 46 40.22 46 38.02V10.02C46 7.8 44.2 6.02 42 6.02ZM22 32L30 24L22 16V22H2V26H22V32ZM42 6.02H6C3.8 6.02 2 7.82 2 10.02V18H6V9.98H42V38.04H6V30H2V38.02C2 40.22 3.8 41.98 6 41.98H42C44.2 41.98 46 40.22 46 38.02V10.02C46 7.8 44.2 6.02 42 6.02ZM22 32L30 24L22 16V22H2V26H22V32Z" fill="white"/>
</g>
</g>
</svg>
