<svg width="32" height="32" viewBox="0 0 32 32" fill="none" xmlns="http://www.w3.org/2000/svg">
<g id="MacBook Air - 1">
<g id="Health">
<g id="monitor_heart">
<g id="Vector">
<path d="M26.6667 5.33331H5.33335C3.86669 5.33331 2.66669 6.53331 2.66669 7.99998V12H5.33335V7.99998H26.6667V12H29.3334V7.99998C29.3334 6.53331 28.1334 5.33331 26.6667 5.33331Z" fill="white"/>
<path d="M26.6667 24H5.33335V20H2.66669V24C2.66669 25.4666 3.86669 26.6666 5.33335 26.6666H26.6667C28.1334 26.6666 29.3334 25.4666 29.3334 24V20H26.6667V24Z" fill="white"/>
<path d="M19.8534 10.0666C19.4 9.15998 17.92 9.15998 17.4667 10.0666L13.3334 18.3466L11.8534 15.4C11.6267 14.9466 11.1734 14.6666 10.6667 14.6666H2.66669V17.3333H9.84002L12.1334 21.9333C12.3734 22.3866 12.8267 22.6666 13.3334 22.6666C13.84 22.6666 14.2934 22.3866 14.52 21.9333L18.6667 13.6533L20.1467 16.6C20.3734 17.0533 20.8267 17.3333 21.3334 17.3333H29.3334V14.6666H22.16L19.8534 10.0666Z" fill="white"/>
</g>
</g>
</g>
</g>
</svg>
