<svg width="48" height="48" viewBox="0 0 48 48" fill="none" xmlns="http://www.w3.org/2000/svg">
<rect width="48" height="48" fill="#1E1E1E"/>
<g id="MacBook Air - 1">
<rect width="1280" height="832" transform="translate(-837 -46)" fill="black"/>
<g id="output">
<g id="Vector">
<path d="M33 34L43 24L33 14L30.18 16.82L35.34 22H17V26H35.34L30.18 31.18L33 34Z" fill="white"/>
<path d="M37 38H9V10H37V14H41V10C41 7.8 39.22 6 37 6H9C6.8 6 5 7.8 5 10V38C5 40.2 6.8 42 9 42H37C39.22 42 41 40.2 41 38V34H37V38Z" fill="white"/>
</g>
</g>
</g>
</svg>
