<?xml version="1.0" encoding="UTF-8"?>
<svg id="Layer_1" xmlns="http://www.w3.org/2000/svg" version="1.1" viewBox="0 0 236.9 35.1">
  <!-- Generator: Adobe Illustrator 30.6.0, SVG Export Plug-In . SVG Version: 2.1.4 Build 109)  -->
  <defs>
    <style>
      .st0 {
        fill: none;
      }

      .st1 {
        fill: #f6931e;
      }
    </style>
  </defs>
  <rect class="st0" width="81.3" height="35"/>
  <path id="Vector_2" class="st1" d="M6.3.4H0v28.5h6.3V.4Z"/>
  <path id="Vector_4" class="st1" d="M21,28.9c-6.3,0-11.5-5.1-11.5-11.4s5.1-11.4,11.5-11.4,11.5,5.1,11.5,11.4-5.1,11.4-11.5,11.4ZM21,12.4c-2.9,0-5.2,2.3-5.2,5.1s2.3,5.1,5.2,5.1,5.2-2.3,5.2-5.1-2.3-5.1-5.2-5.1Z"/>
  <path id="Vector_5" class="st1" d="M45.4,28.9c-6.3,0-11.5-5.1-11.5-11.4s5.1-11.4,11.5-11.4,11.5,5.1,11.5,11.4-5.1,11.4-11.5,11.4ZM45.4,12.4c-2.9,0-5.2,2.3-5.2,5.1s2.3,5.1,5.2,5.1,5.2-2.3,5.2-5.1-2.3-5.1-5.2-5.1Z"/>
  <path id="Vector_6" class="st1" d="M69.9,28.9c-1.6,0-3.1-.3-4.5-.9l2.8-5.6c.5.2,1.1.3,1.6.3,2.9,0,5.2-2.3,5.2-5.1s-2.3-5.1-5.2-5.1-5,2.2-5.2,4.9h0v17.7h-6.3v-17.8h0c.2-6.1,5.2-11.1,11.5-11.1s11.5,5.1,11.5,11.4-5.1,11.4-11.5,11.4h0Z"/>
  <path class="st1" d="M106.6,26.7c-.8,0-1.5-.2-2.2-.5-.6-.3-1.1-.8-1.4-1.4-.3-.6-.5-1.3-.5-2.1v-6.6h2.8v3.6h0c.1-.2.3-.3.5-.4.2-.1.4-.2.6-.2.2,0,.5,0,.7,0,.7,0,1.3.2,1.8.5.5.3,1,.8,1.3,1.3.3.6.5,1.2.5,2s-.1,1.1-.3,1.6c-.2.5-.5.9-.8,1.3-.4.4-.8.6-1.3.8-.5.2-1.1.3-1.7.3h0ZM106.6,24.3c.3,0,.5,0,.7-.2.2-.1.4-.3.5-.5s.2-.5.2-.8,0-.5-.2-.7c-.1-.2-.3-.4-.5-.5s-.4-.2-.7-.2-.5,0-.7.2c-.2.1-.4.3-.5.5-.1.2-.2.5-.2.7s0,.5.2.8c.1.2.3.4.5.5.2.1.4.2.7.2Z"/>
  <path class="st1" d="M114.2,29.5v-3c-.5-.2-.9-.4-1.3-.7-.4-.3-.7-.7-.8-1.1-.2-.4-.3-.9-.3-1.4v-4.3h2.7v4.1c0,.2,0,.4.1.5,0,.2.2.3.4.4.2.1.4.2.6.2s.4,0,.6-.2c.2-.1.3-.2.4-.4,0-.2.1-.3.1-.5v-4.1h2.8v4.3c0,.5,0,1-.3,1.4-.2.4-.5.8-.8,1.1-.4.3-.8.5-1.3.7v2.9h-2.8Z"/>
  <path class="st1" d="M127.6,26.7c-.6,0-1.2-.2-1.7-.5-.5-.3-.9-.8-1.2-1.3s-.4-1.2-.4-2,.2-1.5.5-2.1c.4-.6.8-1.1,1.5-1.4.6-.3,1.4-.5,2.2-.5s1.5.2,2.1.5,1.1.8,1.4,1.4c.3.6.5,1.3.5,2v3.7h-2.6v-1.1h0c-.1.3-.3.5-.5.7s-.5.4-.7.5-.6.2-1,.2h0ZM128.4,24.3c.3,0,.5,0,.7-.2.2-.1.4-.3.5-.5s.2-.5.2-.8,0-.5-.2-.7c-.1-.2-.3-.4-.5-.5s-.4-.2-.7-.2-.5,0-.7.2c-.2.1-.4.3-.5.5-.1.2-.2.5-.2.7s0,.5.2.8c.1.2.3.4.5.5.2.1.4.2.7.2Z"/>
  <path class="st1" d="M137.7,26.7c-.8,0-1.4-.1-2-.4-.6-.3-1-.7-1.4-1.2-.3-.5-.5-1.1-.5-1.7v-4.3h2.7v4.1c0,.2,0,.3.1.5,0,.2.2.3.4.4.2.1.4.2.6.2s.4,0,.6-.2.3-.2.4-.4c0-.2.1-.3.1-.5v-4.1h2.8v4.3c0,.6-.2,1.2-.5,1.7-.3.5-.7.9-1.3,1.2-.6.3-1.2.4-2,.4h0Z"/>
  <path class="st1" d="M142.6,26.6v-5.1c0-.7.2-1.3.6-1.7s1-.6,1.7-.6h2.4v2.1h-1.4c-.2,0-.3,0-.4.2-.1.1-.2.2-.2.4v4.8h-2.8Z"/>
  <path class="st1" d="M151.3,26.7c-.6,0-1.2-.2-1.7-.5s-.9-.8-1.2-1.3-.4-1.2-.4-2,.2-1.5.5-2.1c.4-.6.8-1.1,1.5-1.4s1.4-.5,2.2-.5,1.5.2,2.1.5,1.1.8,1.4,1.4c.3.6.5,1.3.5,2v3.7h-2.6v-1.1h0c-.1.3-.3.5-.5.7-.2.2-.5.4-.7.5s-.6.2-1,.2h0ZM152.1,24.3c.3,0,.5,0,.7-.2.2-.1.4-.3.5-.5s.2-.5.2-.8,0-.5-.2-.7c-.1-.2-.3-.4-.5-.5s-.4-.2-.7-.2-.5,0-.7.2c-.2.1-.4.3-.5.5-.1.2-.2.5-.2.7s0,.5.2.8c.1.2.3.4.5.5.2.1.4.2.7.2Z"/>
  <path class="st1" d="M157.5,26.6v-10.5h2.7v10.5h-2.7Z"/>
  <path class="st1" d="M168.4,26.7c-.5,0-1-.1-1.5-.3s-.9-.5-1.2-1-.5-1-.5-1.6v-4.7h2.7v5c0,0,0,.2,0,.2s0,.1.2.2c0,0,.1,0,.2,0s.1,0,.2,0,.1,0,.1-.2c0,0,0-.1,0-.2v-2.3c0-.6.2-1.2.5-1.6s.7-.8,1.2-1c.5-.2,1-.3,1.5-.3s1.1.1,1.6.3.9.5,1.2,1c.3.4.5,1,.5,1.6v2.3c0,0,0,.2,0,.2,0,0,0,.1.2.2,0,0,.1,0,.2,0s.1,0,.2,0,.1,0,.2-.2,0-.1,0-.2v-5h2.8v4.7c0,.6-.2,1.2-.5,1.6s-.7.7-1.2,1c-.5.2-1,.3-1.5.3s-1-.1-1.5-.3-.9-.5-1.2-1c-.3-.4-.5-1-.5-1.6v-2.3c0,0,0-.2,0-.2,0,0,0-.1-.2-.2s-.1,0-.2,0-.1,0-.2,0c0,0-.1,0-.2.2s0,.1,0,.2v2.3c0,.6-.2,1.2-.5,1.6s-.7.7-1.2,1c-.5.2-1,.3-1.5.3h0Z"/>
  <path class="st1" d="M183.9,26.7c-.7,0-1.4-.2-2-.5-.6-.3-1.1-.8-1.5-1.4s-.5-1.3-.5-2,.2-1.4.5-2,.9-1,1.5-1.4c.6-.3,1.3-.5,2-.5s1.4.2,2,.5c.6.3,1.1.8,1.5,1.4s.5,1.3.5,2-.2,1.4-.5,2-.8,1-1.5,1.4c-.6.3-1.3.5-2,.5h0ZM183.9,24.3c.3,0,.5,0,.7-.2.2-.1.4-.3.5-.5.1-.2.2-.5.2-.7s0-.5-.2-.7c-.1-.2-.3-.4-.5-.5-.2-.1-.4-.2-.7-.2s-.5,0-.7.2c-.2.1-.4.3-.5.5-.1.2-.2.5-.2.7s0,.5.2.7c.1.2.3.4.5.5.2.1.4.2.7.2Z"/>
  <path class="st1" d="M189,26.6v-5.1c0-.7.2-1.3.6-1.7s1-.6,1.7-.6h2.4v2.1h-1.4c-.2,0-.3,0-.4.2-.1.1-.2.2-.2.4v4.8h-2.8Z"/>
  <path class="st1" d="M194.5,26.6v-10.5h2.7v5.8h.6l1.5-2.7h3.1l-1.9,3c.5.2.9.5,1.1.9.3.4.4.9.4,1.6v1.9h-2.8v-1.9c0-.2,0-.4-.1-.5s-.2-.3-.4-.4-.3-.1-.5-.1h-1.1v3h-2.8Z"/>
  <path class="st1" d="M203.3,26.6v-2h3.5c0,0,.1,0,.2,0,0,0,0,0,.1-.1s0-.1,0-.2,0-.1,0-.2,0,0-.1-.1c0,0-.1,0-.2,0h-1.1c-.5,0-.9,0-1.3-.2-.4-.2-.7-.4-1-.8-.2-.4-.4-.8-.4-1.4s.1-.8.3-1.2.5-.7.9-.9c.4-.2.8-.3,1.2-.3h3.8v2h-3.1c0,0-.2,0-.2.1s0,.1,0,.2,0,.2,0,.2c0,0,.1.1.2.1h1c.6,0,1,0,1.4.2.4.2.7.4.9.8s.3.8.3,1.4-.1.8-.3,1.2c-.2.4-.5.7-.9.9s-.8.3-1.3.3h-4Z"/>
  <path class="st1" d="M210.8,26.6v-10.5h2.7v3.5c.3-.2.6-.3.9-.4.3-.1.7-.2,1-.2.6,0,1.1.1,1.6.4s.8.7,1.1,1.1c.2.5.4,1.1.4,1.8v4.3h-2.8v-4c0-.2,0-.4-.2-.6-.1-.2-.2-.3-.4-.4s-.3-.1-.5-.1-.4,0-.5.1-.3.2-.4.4c-.1.2-.2.4-.2.6v4h-2.7,0Z"/>
  <path class="st1" d="M223.6,26.7c-.7,0-1.4-.2-2-.5-.6-.3-1.1-.8-1.5-1.4s-.5-1.3-.5-2,.2-1.4.5-2,.9-1,1.5-1.4c.6-.3,1.3-.5,2-.5s1.4.2,2,.5c.6.3,1.1.8,1.5,1.4s.5,1.3.5,2-.2,1.4-.5,2-.8,1-1.5,1.4c-.6.3-1.3.5-2,.5h0ZM223.6,24.3c.3,0,.5,0,.7-.2.2-.1.4-.3.5-.5.1-.2.2-.5.2-.7s0-.5-.2-.7c-.1-.2-.3-.4-.5-.5-.2-.1-.4-.2-.7-.2s-.5,0-.7.2c-.2.1-.4.3-.5.5-.1.2-.2.5-.2.7s0,.5.2.7c.1.2.3.4.5.5.2.1.4.2.7.2Z"/>
  <path class="st1" d="M232.8,18.9c.6,0,1.2,0,1.7.3.5.2.9.5,1.3.8.4.4.6.8.8,1.3s.3,1,.3,1.6-.2,1.4-.5,2c-.3.6-.7,1-1.3,1.3-.5.3-1.1.5-1.8.5s-.5,0-.7,0c-.2,0-.4-.1-.6-.2-.2-.1-.4-.2-.5-.4h0v3.6h-2.8v-6.6c0-.8.2-1.5.5-2.1.3-.6.8-1.1,1.4-1.4s1.3-.5,2.2-.5h0ZM232.8,21.4c-.2,0-.5,0-.7.2-.2.1-.4.3-.5.5-.1.2-.2.5-.2.8s0,.5.2.7c.1.2.3.4.5.5.2.1.4.2.7.2s.5,0,.7-.2c.2-.1.4-.3.5-.5.1-.2.2-.5.2-.7s0-.6-.2-.8c-.1-.2-.3-.4-.5-.5s-.4-.2-.7-.2Z"/>
</svg>