<?xml version="1.0" encoding="UTF-8"?>
<svg id="Layer_1" xmlns="http://www.w3.org/2000/svg" version="1.1" viewBox="0 0 81.3 35">
  <!-- Generator: Adobe Illustrator 30.6.0, SVG Export Plug-In . SVG Version: 2.1.4 Build 109)  -->
  <defs>
    <style>
      .st0 {
        fill: none;
      }

      .st1 {
        fill: #f6931e;
      }
    </style>
  </defs>
  <rect class="st0" width="81.3" height="35"/>
  <path id="Vector_2" class="st1" d="M6.3.4H0v28.5h6.3V.4Z"/>
  <path id="Vector_4" class="st1" d="M21,28.9c-6.3,0-11.5-5.1-11.5-11.4s5.1-11.4,11.5-11.4,11.5,5.1,11.5,11.4-5.1,11.4-11.5,11.4ZM21,12.4c-2.9,0-5.2,2.3-5.2,5.1s2.3,5.1,5.2,5.1,5.2-2.3,5.2-5.1-2.3-5.1-5.2-5.1Z"/>
  <path id="Vector_5" class="st1" d="M45.4,28.9c-6.3,0-11.5-5.1-11.5-11.4s5.1-11.4,11.5-11.4,11.5,5.1,11.5,11.4-5.1,11.4-11.5,11.4ZM45.4,12.4c-2.9,0-5.2,2.3-5.2,5.1s2.3,5.1,5.2,5.1,5.2-2.3,5.2-5.1-2.3-5.1-5.2-5.1Z"/>
  <path id="Vector_6" class="st1" d="M69.9,28.9c-1.6,0-3.1-.3-4.5-.9l2.8-5.6c.5.2,1.1.3,1.6.3,2.9,0,5.2-2.3,5.2-5.1s-2.3-5.1-5.2-5.1-5,2.2-5.2,4.9h0v17.7h-6.3v-17.8h0c.2-6.1,5.2-11.1,11.5-11.1s11.5,5.1,11.5,11.4-5.1,11.4-11.5,11.4h0Z"/>
</svg>