<svg width="48" height="48" viewBox="0 0 48 48" fill="none" xmlns="http://www.w3.org/2000/svg">
<rect width="48" height="48" fill="#1E1E1E"/>
<g id="MacBook Air - 1">
<rect width="1280" height="832" transform="translate(-360 -770)" fill="black"/>
<g id="Mixer Control">
<g id="Solo Button" clip-path="url(#clip0_0_1)">
<path id="Vector" d="M36.44 0H11.06C4.95173 0 0 4.95173 0 11.06V36.44C0 42.5483 4.95173 47.5 11.06 47.5H36.44C42.5483 47.5 47.5 42.5483 47.5 36.44V11.06C47.5 4.95173 42.5483 0 36.44 0Z" fill="white"/>
<path id="Vector_2" d="M23.75 28.37C26.81 28.37 29.27 25.9 29.27 22.83L29.29 11.75C29.29 8.69002 26.82 6.21002 23.75 6.21002C20.68 6.21002 18.21 8.68002 18.21 11.75V22.83C18.21 25.89 20.68 28.37 23.75 28.37ZM33.54 22.83C33.54 28.37 28.85 32.25 23.75 32.25C18.65 32.25 13.96 28.37 13.96 22.83H10.82C10.82 29.13 15.84 34.33 21.9 35.24V41.3H25.59V35.24C31.65 34.35 36.67 29.15 36.67 22.83H33.53H33.54Z" fill="black"/>
</g>
</g>
</g>
<defs>
<clipPath id="clip0_0_1">
<rect width="47.5" height="47.5" fill="white"/>
</clipPath>
</defs>
</svg>
