<?xml version="1.0" encoding="UTF-8"?>
<svg id="Layer_1" xmlns="http://www.w3.org/2000/svg" version="1.1" viewBox="0 0 1037.7 128.1">
  <!-- Generator: Adobe Illustrator 30.6.0, SVG Export Plug-In . SVG Version: 2.1.4 Build 109)  -->
  <defs>
    <style>
      .st0 {
        fill: #f6931e;
      }
    </style>
  </defs>
  <path class="st0" d="M36.1,94.9c-6.2,0-11.7-1.3-16.5-3.9-4.8-2.6-8.5-6.2-11.1-10.8-2.6-4.6-4-10-4-16.3V13.2h21.1v27.8h.7c1.1-1.3,2.4-2.4,3.9-3.3,1.5-.9,3.1-1.5,4.8-1.9,1.8-.4,3.6-.6,5.6-.6,5.1,0,9.6,1.2,13.8,3.6,4.1,2.4,7.4,5.8,9.7,10.1,2.4,4.3,3.6,9.4,3.6,15.3s-.8,8.7-2.3,12.4c-1.5,3.7-3.6,7-6.4,9.7-2.8,2.8-6.1,4.9-10,6.3-3.9,1.5-8.2,2.2-12.9,2.2ZM36.1,76.5c2,0,3.7-.5,5.2-1.4,1.5-1,2.7-2.3,3.5-4,.8-1.7,1.3-3.7,1.3-5.9s-.4-4-1.3-5.6c-.8-1.6-2-2.9-3.5-3.9-1.5-1-3.2-1.4-5.2-1.4s-3.6.5-5.2,1.4c-1.5,1-2.7,2.2-3.6,3.9-.8,1.6-1.3,3.5-1.3,5.6s.4,4.2,1.3,5.9c.8,1.7,2,3.1,3.6,4,1.5,1,3.3,1.4,5.2,1.4Z"/>
  <path class="st0" d="M94.6,115.8v-22.6c-3.8-1.2-7.1-2.9-10-5.2-2.8-2.3-5-5.1-6.5-8.3-1.5-3.2-2.3-6.7-2.3-10.5v-32.8h21v31.2c0,1.4.3,2.7,1,4,.7,1.2,1.6,2.3,2.9,3.1,1.2.8,2.7,1.2,4.4,1.2s3.2-.4,4.5-1.2c1.2-.8,2.1-1.8,2.8-3.1.6-1.2.9-2.6.9-4v-31.2h21.1v32.8c0,3.8-.7,7.4-2.2,10.6-1.5,3.3-3.6,6.1-6.4,8.4-2.8,2.3-6.2,4-10.1,5.1v22.4h-21.1Z"/>
  <path class="st0" d="M196.9,94.9c-4.8,0-9.1-1.2-12.9-3.6-3.8-2.4-6.8-5.8-9-10.1s-3.3-9.3-3.3-15,1.4-11.5,4.1-16.1c2.7-4.7,6.5-8.3,11.3-10.9,4.8-2.6,10.4-4,16.8-4s11.7,1.3,16.3,3.8,8.2,6.1,10.8,10.6c2.6,4.5,3.9,9.7,3.9,15.7v28.3h-20v-8.5h-.7c-1,2-2.2,3.7-3.8,5.2-1.6,1.5-3.5,2.7-5.7,3.5-2.2.8-4.8,1.2-7.8,1.2ZM203.4,76.5c2,0,3.7-.5,5.2-1.4,1.5-1,2.7-2.3,3.5-4,.8-1.7,1.3-3.7,1.3-5.9s-.4-4-1.3-5.6c-.8-1.6-2-2.9-3.5-3.9-1.5-1-3.2-1.4-5.2-1.4s-3.6.5-5.2,1.4c-1.5,1-2.7,2.2-3.6,3.9-.8,1.6-1.3,3.5-1.3,5.6s.4,4.2,1.3,5.9c.8,1.7,2,3.1,3.6,4,1.5,1,3.3,1.4,5.2,1.4Z"/>
  <path class="st0" d="M274.2,94.9c-5.9,0-11.1-1.1-15.6-3.4-4.5-2.2-8-5.3-10.5-9.1-2.5-3.9-3.7-8.2-3.7-13.1v-32.8h21v31.5c0,1.3.3,2.6,1,3.9.7,1.2,1.6,2.3,2.9,3,1.3.8,2.8,1.2,4.5,1.2s3.1-.4,4.3-1.2,2.1-1.8,2.8-3c.7-1.2,1-2.5,1-3.9v-31.5h21.1v32.8c0,4.9-1.2,9.3-3.5,13.1-2.3,3.9-5.6,6.9-10,9.1-4.3,2.2-9.5,3.4-15.4,3.4Z"/>
  <path class="st0" d="M312.1,93.5v-39.3c0-5.4,1.6-9.7,4.7-12.9s7.6-4.7,13.2-4.7h18.3v16h-10.9c-1.2,0-2.3.4-3,1.2-.8.8-1.2,1.8-1.2,3v36.7h-21.1Z"/>
  <path class="st0" d="M378.4,94.9c-4.8,0-9.1-1.2-12.9-3.6-3.8-2.4-6.8-5.8-9-10.1s-3.3-9.3-3.3-15,1.4-11.5,4.1-16.1c2.7-4.7,6.5-8.3,11.3-10.9s10.4-4,16.8-4,11.7,1.3,16.3,3.8,8.2,6.1,10.8,10.6c2.6,4.5,3.9,9.7,3.9,15.7v28.3h-20v-8.5h-.7c-1,2-2.2,3.7-3.8,5.2-1.6,1.5-3.5,2.7-5.7,3.5-2.2.8-4.8,1.2-7.8,1.2ZM384.9,76.5c2,0,3.7-.5,5.2-1.4,1.5-1,2.7-2.3,3.5-4,.8-1.7,1.3-3.7,1.3-5.9s-.4-4-1.3-5.6c-.8-1.6-2-2.9-3.5-3.9-1.5-1-3.2-1.4-5.2-1.4s-3.6.5-5.2,1.4c-1.5,1-2.7,2.2-3.6,3.9-.8,1.6-1.3,3.5-1.3,5.6s.4,4.2,1.3,5.9c.8,1.7,2,3.1,3.6,4,1.5,1,3.3,1.4,5.2,1.4Z"/>
  <path class="st0" d="M425.9,93.5V13.2h21v80.3h-21Z"/>
  <path class="st0" d="M509.7,94.9c-4.1,0-8-.8-11.7-2.5-3.7-1.7-6.7-4.1-9-7.4-2.3-3.3-3.5-7.4-3.5-12.3v-36.3h21v38.3c0,.7.1,1.2.4,1.7.3.5.7.9,1.2,1.2.5.3,1,.4,1.5.4s1.1-.1,1.5-.4c.4-.3.8-.7,1.1-1.2.3-.5.4-1,.4-1.7v-17.5c0-4.8,1.2-8.9,3.5-12.2,2.3-3.3,5.3-5.8,9-7.4,3.7-1.6,7.6-2.5,11.8-2.5s8.2.8,11.9,2.5c3.7,1.7,6.7,4.1,9,7.4,2.3,3.3,3.5,7.4,3.5,12.2v17.5c0,.7.1,1.2.4,1.7.3.5.7.9,1.2,1.2.5.3,1,.4,1.5.4s1.1-.1,1.6-.4c.5-.3.9-.7,1.2-1.2.3-.5.4-1,.4-1.7v-38.3h21.1v36.3c0,4.9-1.2,9-3.5,12.3-2.3,3.3-5.3,5.7-9,7.4-3.7,1.7-7.6,2.5-11.8,2.5s-8-.8-11.7-2.5c-3.7-1.7-6.7-4.1-9.1-7.4-2.3-3.3-3.5-7.4-3.5-12.3v-17.5c0-.7-.1-1.3-.4-1.8-.3-.5-.7-.9-1.2-1.2-.5-.3-1-.4-1.6-.4s-1,.1-1.5.4c-.5.3-.9.7-1.2,1.2-.3.5-.4,1.1-.4,1.8v17.5c0,4.9-1.2,9-3.5,12.3-2.3,3.3-5.3,5.7-9,7.4-3.7,1.7-7.6,2.5-11.7,2.5Z"/>
  <path class="st0" d="M628.2,94.8c-5.7,0-10.9-1.2-15.7-3.7-4.7-2.5-8.5-6-11.3-10.5-2.8-4.5-4.2-9.7-4.2-15.6s1.4-11,4.2-15.5c2.8-4.5,6.6-8,11.4-10.5,4.8-2.5,10-3.8,15.7-3.8s10.9,1.3,15.6,3.8c4.7,2.5,8.4,6,11.2,10.5,2.8,4.5,4.2,9.6,4.2,15.5s-1.4,11.1-4.2,15.6c-2.8,4.5-6.5,8-11.3,10.5-4.7,2.5-10,3.7-15.7,3.7ZM628.2,75.9c2,0,3.7-.5,5.3-1.4,1.5-1,2.7-2.3,3.6-3.9.8-1.6,1.3-3.5,1.3-5.7s-.4-4-1.3-5.6c-.8-1.6-2-2.9-3.6-3.9-1.5-1-3.3-1.4-5.3-1.4s-3.7.5-5.3,1.4c-1.5,1-2.8,2.2-3.6,3.9-.9,1.6-1.3,3.5-1.3,5.6s.4,4,1.3,5.7c.9,1.7,2.1,3,3.6,3.9,1.5,1,3.3,1.4,5.3,1.4Z"/>
  <path class="st0" d="M667.2,93.5v-39.3c0-5.4,1.6-9.7,4.7-12.9s7.6-4.7,13.2-4.7h18.3v16h-10.9c-1.2,0-2.3.4-3,1.2-.8.8-1.2,1.8-1.2,3v36.7h-21.1Z"/>
  <path class="st0" d="M709.7,93.5V13.2h21v44.3h4.7l11.6-21h24l-14.6,23c3.7,1.6,6.6,4,8.6,7,2,3.1,3,7.2,3,12.2v14.7h-21.1v-14.7c0-1.6-.3-3-1-4.2-.7-1.2-1.7-2.1-2.9-2.8s-2.6-1-4.1-1h-8.1v22.7h-21Z"/>
  <path class="st0" d="M776.8,93.5v-15h26.6c.6,0,1.1-.1,1.4-.4.4-.3.7-.6.9-1,.2-.4.3-.8.3-1.3s-.1-.9-.3-1.3c-.2-.4-.5-.7-.9-.9-.4-.2-.8-.3-1.4-.3h-8.6c-3.7,0-7.2-.6-10.2-1.9-3.1-1.3-5.5-3.3-7.3-6.1-1.8-2.8-2.7-6.3-2.7-10.6s.8-6.4,2.5-9.2c1.7-2.8,3.9-5,6.8-6.6,2.9-1.7,6-2.5,9.5-2.5h28.9v15h-24c-.7,0-1.3.3-1.8.8-.5.5-.7,1.1-.7,1.8s.2,1.2.7,1.8c.5.5,1.1.8,1.8.8h7.9c4.3,0,7.9.6,11.1,1.9,3.1,1.3,5.5,3.3,7.2,6,1.7,2.7,2.5,6.2,2.5,10.6s-.9,6.5-2.6,9.2c-1.7,2.8-4,5-6.9,6.7-2.9,1.7-6.1,2.5-9.7,2.5h-31Z"/>
  <path class="st0" d="M834.1,93.5V13.2h21v26.5c2.1-1.5,4.3-2.6,6.8-3.4,2.5-.8,5-1.2,7.5-1.2,4.7,0,8.8,1,12.3,3.1,3.5,2.1,6.2,5,8.1,8.8,1.9,3.8,2.9,8.4,2.9,13.6v32.8h-21.1v-30.9c0-1.8-.4-3.4-1.2-4.6-.8-1.2-1.8-2.2-3-2.9-1.2-.7-2.6-1-4-1s-2.8.3-4.1,1c-1.3.7-2.3,1.6-3.1,2.9-.8,1.3-1.2,2.8-1.2,4.6v31h-21Z"/>
  <path class="st0" d="M932,94.8c-5.7,0-10.9-1.2-15.7-3.7-4.7-2.5-8.5-6-11.3-10.5-2.8-4.5-4.2-9.7-4.2-15.6s1.4-11,4.2-15.5c2.8-4.5,6.6-8,11.4-10.5,4.8-2.5,10-3.8,15.7-3.8s10.9,1.3,15.6,3.8c4.7,2.5,8.4,6,11.2,10.5,2.8,4.5,4.2,9.6,4.2,15.5s-1.4,11.1-4.2,15.6c-2.8,4.5-6.5,8-11.3,10.5-4.7,2.5-10,3.7-15.7,3.7ZM932,75.9c2,0,3.7-.5,5.3-1.4,1.5-1,2.7-2.3,3.6-3.9.8-1.6,1.3-3.5,1.3-5.7s-.4-4-1.3-5.6c-.8-1.6-2-2.9-3.6-3.9-1.5-1-3.3-1.4-5.3-1.4s-3.7.5-5.3,1.4c-1.5,1-2.8,2.2-3.6,3.9-.9,1.6-1.3,3.5-1.3,5.6s.4,4,1.3,5.7c.9,1.7,2.1,3,3.6,3.9,1.5,1,3.3,1.4,5.3,1.4Z"/>
  <path class="st0" d="M1002.7,35.1c4.8,0,9.1.7,12.9,2.2,3.9,1.5,7.2,3.6,10,6.3,2.8,2.8,4.9,6,6.4,9.7,1.5,3.7,2.3,7.9,2.3,12.4s-1.2,10.9-3.6,15.2c-2.4,4.4-5.6,7.8-9.7,10.2-4.1,2.4-8.7,3.6-13.8,3.6s-3.9-.2-5.6-.7c-1.8-.4-3.4-1.1-4.8-1.9-1.5-.8-2.8-1.9-3.9-3.2h-.7v27.8h-21.1v-50.8c0-6.2,1.3-11.7,4-16.3,2.6-4.6,6.3-8.2,11.1-10.8,4.8-2.6,10.3-3.9,16.5-3.9ZM1002.7,53.6c-1.9,0-3.6.5-5.2,1.4-1.5,1-2.7,2.3-3.6,4-.8,1.7-1.3,3.7-1.3,5.9s.4,3.9,1.3,5.6c.8,1.7,2,3,3.6,3.9,1.5,1,3.3,1.4,5.2,1.4s3.7-.5,5.2-1.4c1.5-1,2.7-2.3,3.5-3.9.8-1.7,1.3-3.5,1.3-5.6s-.4-4.3-1.3-5.9c-.8-1.7-2-3-3.5-4-1.5-1-3.2-1.4-5.2-1.4Z"/>
</svg>