<svg width="132" height="35" viewBox="0 0 132 35" fill="none" xmlns="http://www.w3.org/2000/svg">
<g id="MacBook Air - 1">
<g id="bbloop logo" clip-path="url(#clip0_0_1)">
<path id="Vector" d="M11.458 6.13488C9.86698 6.13488 8.35028 6.45989 6.97208 7.04289L9.81631 12.6316C10.3331 12.4608 10.8837 12.3636 11.4614 12.3636C14.3157 12.3636 16.6364 14.6654 16.6364 17.4967C16.6364 20.3279 14.3157 22.6297 11.4614 22.6297C8.60701 22.6297 6.42147 20.4585 6.29311 17.7446H6.28636V0H0V17.815H0.00675589C0.175653 23.9364 5.24595 28.8651 11.458 28.8651C17.67 28.8651 22.916 23.7656 22.916 17.5C22.916 11.2344 17.7748 6.13488 11.458 6.13488Z" fill="#F6931E"/>
<path id="Vector_2" d="M56.9724 0.385315H50.6895V28.8651H56.9724V0.385315Z" fill="#F6931E"/>
<path id="Vector_3" d="M36.0022 6.13488C34.4111 6.13488 32.8944 6.45989 31.5162 7.04289L34.3605 12.6316C34.8773 12.4608 35.4279 12.3636 36.0055 12.3636C38.8599 12.3636 41.1805 14.6654 41.1805 17.4967C41.1805 20.3279 38.8599 22.6297 36.0055 22.6297C33.1512 22.6297 30.9656 20.4585 30.8373 17.7446H30.8305V0H24.5475V17.815H24.5543C24.7232 23.9364 29.7935 28.8651 36.0055 28.8651C42.2176 28.8651 47.4635 23.7656 47.4635 17.5C47.4635 11.2344 42.3223 6.13488 36.0055 6.13488H36.0022Z" fill="#F6931E"/>
<path id="Vector_4" d="M71.653 28.8651C65.3362 28.8651 60.195 23.7656 60.195 17.5C60.195 11.2344 65.3362 6.13488 71.653 6.13488C77.9698 6.13488 83.111 11.2344 83.111 17.5C83.111 23.7656 77.9698 28.8651 71.653 28.8651ZM71.653 12.3669C68.7986 12.3669 66.478 14.6688 66.478 17.5C66.478 20.3312 68.7986 22.6331 71.653 22.6331C74.5074 22.6331 76.828 20.3312 76.828 17.5C76.828 14.6688 74.5074 12.3669 71.653 12.3669Z" fill="#F6931E"/>
<path id="Vector_5" d="M96.0992 28.8651C89.7824 28.8651 84.6412 23.7656 84.6412 17.5C84.6412 11.2344 89.7824 6.13488 96.0992 6.13488C102.416 6.13488 107.557 11.2344 107.557 17.5C107.557 23.7656 102.416 28.8651 96.0992 28.8651ZM96.0992 12.3669C93.2448 12.3669 90.9242 14.6688 90.9242 17.5C90.9242 20.3312 93.2448 22.6331 96.0992 22.6331C98.9535 22.6331 101.274 20.3312 101.274 17.5C101.274 14.6688 98.9535 12.3669 96.0992 12.3669Z" fill="#F6931E"/>
<path id="Vector_6" d="M120.542 28.8651C118.951 28.8651 117.434 28.5401 116.056 27.9571L118.9 22.3684C119.417 22.5393 119.968 22.6364 120.545 22.6364C123.4 22.6364 125.72 20.3346 125.72 17.5034C125.72 14.6721 123.4 12.3703 120.545 12.3703C117.691 12.3703 115.505 14.5415 115.377 17.2554H115.37V35.0034H109.087V17.1884H109.094C109.263 11.0669 114.333 6.13824 120.545 6.13824C126.757 6.13824 132.003 11.2378 132.003 17.5034C132.003 23.7689 126.862 28.8685 120.545 28.8685L120.542 28.8651Z" fill="#F6931E"/>
</g>
</g>
<defs>
<clipPath id="clip0_0_1">
<rect width="132" height="35" fill="white"/>
</clipPath>
</defs>
</svg>
